<?xml version="1.0" encoding="utf-8"?>
<!-- Generator: Adobe Illustrator 25.0.0, SVG Export Plug-In . SVG Version: 6.00 Build 0)  -->
<svg version="1.1" id="Layer_1" xmlns="http://www.w3.org/2000/svg" xmlns:xlink="http://www.w3.org/1999/xlink" x="0px" y="0px"
	 viewBox="0 0 296.87 184.04" style="enable-background:new 0 0 296.87 184.04;" xml:space="preserve">
<style type="text/css">
	.st0{fill:url(#SVGID_1_);}
	.st1{fill:#00833E;}
</style>
<g>
	<linearGradient id="SVGID_1_" gradientUnits="userSpaceOnUse" x1="6.1132" y1="92.0189" x2="290.7547" y2="92.0189">
		<stop  offset="0" style="stop-color:#CE1A17"/>
		<stop  offset="1" style="stop-color:#CE1A17"/>
	</linearGradient>
	<polygon class="st0" points="6.11,4.97 6.11,62.58 6.11,63.85 6.11,120.19 6.11,121.46 6.11,179.07 290.75,179.07 290.75,121.46 
		290.75,120.19 290.75,63.85 290.75,62.58 290.75,4.97 	"/>
	<g>
		<path class="st1" d="M122.83,134.16l10.94-33.68l-28.65-20.81h35.41l10.95-33.7l10.95,33.7h35.41l-28.65,20.81l10.94,33.68
			l-28.65-20.81L122.83,134.16z M157.1,109.26l10.48,7.62l-4-12.32L157.1,109.26z M139.39,104.56l-4,12.32l10.48-7.62L139.39,104.56
			z M141.54,97.96l9.95,7.23l9.95-7.23l-3.8-11.69h-12.31L141.54,97.96z M125.45,86.27l10.47,7.61l2.47-7.61H125.45z M167.05,93.88
			l10.47-7.61h-12.94L167.05,93.88z M147.48,79.67h8.02l-4.01-12.34L147.48,79.67z"/>
	</g>
</g>
</svg>
